<svg width="26" height="33" viewBox="0 0 26 33" fill="none" xmlns="http://www.w3.org/2000/svg">
<path d="M12.9951 5.44453C12.4881 4.01595 11.0987 0.864433 6.90627 0.62447C5.80212 0.56208 5.03215 1.37475 5.02208 2.19542C5.00832 3.30245 5.34426 5.60287 2.88672 10.1078C1.06861 13.4417 0.155304 16.462 0.203775 19.8231C0.31032 27.1947 5.71573 32.6211 12.9933 32.6211C16.7823 32.6211 18.3595 32.4979 20.0876 31.9204C22.6976 31.0502 24.1887 29.1432 24.1406 26.2381C25.0942 25.3422 25.7976 23.9936 25.7976 22.6866C25.7976 21.4004 25.5751 20.1638 24.2402 18.9752C25.0177 18.1161 25.8213 17.0459 25.7976 15.3694C25.7678 13.2769 23.5845 11.8371 21.9859 11.8371L14.9174 11.8346C14.2574 16.4071 10.9166 19.4962 9.29155 20.4958C10.8989 19.4823 12.4217 14.3113 12.9858 11.8339C12.9858 11.8339 13.7561 7.5898 12.9951 5.44453Z" fill="#21C0B3"/>
</svg>
